<svg version="1.1" id="Layer_1" xmlns="http://www.w3.org/2000/svg" xmlns:xlink="http://www.w3.org/1999/xlink" x="0px" y="0px"
	 width="100%" viewBox="0 0 1024 1024" enable-background="new 0 0 1024 1024" xml:space="preserve">
<path fill="#4C9194" opacity="1.000000" stroke="none" 
	d="
M676.000000,1025.000000 
	C450.666656,1025.000000 225.833328,1025.000000 1.000000,1025.000000 
	C1.000000,683.666687 1.000000,342.333344 1.000000,1.000000 
	C342.333344,1.000000 683.666687,1.000000 1025.000000,1.000000 
	C1025.000000,342.333344 1025.000000,683.666687 1025.000000,1025.000000 
	C908.833313,1025.000000 792.666687,1025.000000 676.000000,1025.000000 
M273.802521,780.947937 
	C274.134705,784.873901 274.725037,788.799438 274.731415,792.725952 
	C274.738861,797.277771 277.099487,798.392944 280.840912,798.701660 
	C279.149780,803.753052 280.422699,808.094238 283.633301,812.228271 
	C289.535034,819.827515 297.782593,820.333740 306.228241,819.766113 
	C322.311646,818.685120 338.382019,817.381470 354.441986,815.988220 
	C373.654175,814.321411 392.846954,812.432312 412.053528,810.699341 
	C426.289886,809.414856 440.532562,808.198181 454.776764,807.003052 
	C466.369385,806.030457 477.978577,805.244629 489.562042,804.176636 
	C503.462952,802.894958 517.327942,800.482483 531.238342,800.235352 
	C548.170105,799.934631 565.141968,801.212769 582.079041,802.130493 
	C592.527893,802.696594 602.941833,803.892212 613.375610,804.754883 
	C626.794983,805.864563 640.217224,806.938477 653.640442,808.000061 
	C665.568909,808.943420 677.502930,809.817322 689.429932,810.778625 
	C706.496704,812.154297 723.545410,813.806458 740.631348,814.863892 
	C746.555176,815.230469 752.612915,814.510437 758.528015,813.695374 
	C768.055176,812.382629 772.732178,806.391968 774.726013,793.876099 
	C776.914856,780.135742 777.989685,778.949036 791.221313,775.663696 
	C800.594543,773.336365 805.254761,766.454407 804.454163,756.775391 
	C802.549438,733.748840 800.936584,710.697815 798.960938,687.677673 
	C797.625183,672.113220 795.720154,656.597839 794.357666,641.035339 
	C793.357727,629.613586 791.837158,618.112000 792.286621,606.714478 
	C793.261963,581.977051 795.287781,557.279236 797.004089,532.573486 
	C798.294373,514.000000 799.774963,495.439758 801.164246,476.873138 
	C802.776550,455.326965 804.344666,433.777405 806.001648,412.234650 
	C807.352844,394.668335 808.926025,377.118378 810.178894,359.545349 
	C811.277893,344.130646 812.354370,328.704010 812.894653,313.263519 
	C813.253784,303.002411 806.609741,296.601746 796.207031,295.189423 
	C796.462708,292.405212 796.593323,289.602478 797.002441,286.841003 
	C797.669373,282.339905 795.531738,280.394287 791.305969,280.256012 
	C786.203003,280.088989 781.097534,279.999725 775.292603,279.557678 
	C772.190918,279.667297 769.089233,279.776917 765.359741,279.684326 
	C764.536316,279.363525 763.712891,279.042755 762.632935,277.866913 
	C762.614502,274.625458 762.471558,271.378418 762.615784,268.144226 
	C762.737183,265.421967 761.798828,263.791779 758.978638,262.743225 
	C757.635742,260.066772 756.957458,256.342041 754.789246,254.967331 
	C751.775024,253.056259 747.643982,252.906708 743.811951,251.201553 
	C743.586121,250.059082 743.282898,248.925766 743.146362,247.772736 
	C741.621887,234.894653 741.615601,234.754486 729.048218,235.941833 
	C700.577026,238.631760 672.120605,241.477936 643.657288,244.251190 
	C613.541077,247.185486 583.419189,250.063751 553.309204,253.060242 
	C541.913940,254.194260 530.544739,255.590088 518.307068,256.836853 
	C515.658813,256.576019 513.013550,256.278259 510.361725,256.060303 
	C491.297424,254.493332 472.229065,252.974792 453.167267,251.377991 
	C432.280487,249.628311 411.398773,247.818192 390.515991,246.021240 
	C372.782562,244.495255 355.052063,242.934830 337.317780,241.418640 
	C320.245575,239.959045 303.169556,238.544128 286.096771,237.091187 
	C282.912781,236.820206 281.159332,237.793121 280.934662,241.399719 
	C280.469421,248.868484 279.634094,256.314209 278.033844,263.918823 
	C275.209900,263.939362 272.363007,264.196960 269.567322,263.925995 
	C265.146271,263.497528 263.135101,264.904877 263.544617,269.674622 
	C263.839844,273.112885 263.342041,276.619263 262.446533,280.110840 
	C256.155334,280.747437 249.876572,281.586060 243.570099,281.973877 
	C233.818466,282.573486 233.105881,283.274353 234.211670,293.074341 
	C234.249023,293.405365 234.317444,293.733246 234.347580,294.064728 
	C235.898895,311.134613 237.457626,328.203857 238.994049,345.275085 
	C240.784119,365.164642 242.535812,385.057648 244.338120,404.946106 
	C246.545807,429.307892 248.748077,453.670349 251.036789,478.024597 
	C251.922897,487.453552 253.039154,496.860840 254.076370,507.155182 
	C253.581085,513.948425 253.212936,520.753784 252.566086,527.532532 
	C250.798401,546.057190 248.841553,564.563904 247.092712,583.090271 
	C244.906616,606.249023 242.885941,629.423340 240.734787,652.585449 
	C237.846207,683.687744 234.839066,714.779236 232.020691,745.887817 
	C231.240402,754.500366 231.464783,754.520691 240.055359,756.121582 
	C239.943024,766.988159 242.476151,772.027893 251.148636,774.838806 
	C258.468506,777.211426 266.188049,778.351074 273.802521,780.947937 
M984.731201,964.907166 
	C977.055969,960.491211 972.272400,953.716003 969.094238,945.141113 
	C964.668152,956.879028 957.069885,964.854004 945.077148,968.916626 
	C956.914490,973.338806 964.881104,980.945251 968.922546,992.943542 
	C973.301147,980.999512 981.056458,973.180542 994.119568,969.236450 
	C990.121826,967.411865 987.750916,966.329773 984.731201,964.907166 
z"/>
<path fill="#F5EBBA" opacity="1.000000" stroke="none" 
	d="
M758.983093,263.491669 
	C761.798828,263.791779 762.737183,265.421967 762.615784,268.144226 
	C762.471558,271.378418 762.614502,274.625458 762.619995,278.707611 
	C762.525879,282.876923 762.371765,286.205627 762.373901,289.534180 
	C762.428101,372.352692 762.480347,455.171265 762.575745,537.989746 
	C762.612610,569.981201 762.754150,601.972473 762.721008,634.336548 
	C762.707764,638.147766 762.821472,641.586426 762.862915,645.383423 
	C760.773254,649.089966 758.755798,652.438049 756.382690,655.830444 
	C746.025513,659.278015 736.024109,662.681396 725.590027,666.067566 
	C708.592224,666.696228 692.030151,667.456299 675.459656,667.906311 
	C671.397095,668.016724 669.979614,669.376160 669.868896,673.450012 
	C669.630493,682.224548 669.439941,691.061340 668.232056,699.733704 
	C666.589294,711.528320 664.014099,723.192932 661.628418,735.183960 
	C658.280823,742.309143 655.143555,749.163757 652.000732,756.007812 
	C651.995117,755.997314 652.018494,756.003174 651.796509,756.122131 
	C651.402039,756.523682 651.229553,756.806274 650.849548,757.360229 
	C647.750427,761.641113 643.460510,762.338318 638.514282,762.450928 
	C637.227661,762.301208 636.396179,762.223877 635.564697,762.223633 
	C546.780945,762.200012 457.997223,762.179626 369.213470,762.186523 
	C367.740356,762.186646 366.267212,762.524170 364.349609,762.602417 
	C356.107605,762.419128 348.309814,762.245056 340.512726,762.273987 
	C318.953735,762.354004 297.395081,762.518799 275.469910,762.514893 
	C274.078217,762.470459 273.052826,762.561157 271.584381,762.546509 
	C267.486908,762.305542 262.744812,763.753174 263.604980,756.723450 
	C263.750702,754.754028 263.832642,753.255188 263.832764,751.756409 
	C263.841736,639.109863 263.846649,526.463318 263.823914,413.816772 
	C263.823608,412.179321 263.472931,410.541931 263.330902,408.479736 
	C263.442688,378.834442 263.556976,349.613922 263.554688,320.393372 
	C263.553650,306.960663 263.323975,293.527954 263.197998,280.095245 
	C263.342041,276.619263 263.839844,273.112885 263.544617,269.674622 
	C263.135101,264.904877 265.146271,263.497528 269.567322,263.925995 
	C272.363007,264.196960 275.209900,263.939362 278.955811,263.934875 
	C287.031708,263.957336 294.187775,263.860413 301.338776,264.007416 
	C305.945648,264.102112 310.545166,264.554962 314.837524,265.033691 
	C303.531616,272.838959 293.554657,281.379791 288.363037,294.229431 
	C285.876862,300.382965 285.076294,306.386902 289.969574,312.179749 
	C289.363831,314.430145 288.319061,316.359955 288.457916,318.200531 
	C289.206451,328.122925 295.485626,335.273804 305.094208,338.324951 
	C311.886322,340.481842 318.621979,342.935944 322.922333,349.331726 
	C325.125122,352.607849 327.482544,355.807587 330.054443,358.797180 
	C331.496948,360.473938 333.519714,361.651489 335.363464,363.466675 
	C335.652405,367.578583 335.858887,371.277771 335.931824,375.152039 
	C336.073914,375.897156 336.349609,376.467224 336.766479,377.398834 
	C337.381531,379.986694 337.855377,382.213013 338.114319,384.783936 
	C337.336121,386.827026 336.051086,388.653351 336.325684,390.203369 
	C338.228455,400.944580 344.327820,413.846100 358.392700,415.018860 
	C363.875946,415.476013 369.657196,414.925842 375.022003,413.652069 
	C383.709808,411.589325 392.216583,408.698792 400.678223,405.802551 
	C402.430511,405.202789 403.651428,403.050629 405.448914,401.678284 
	C407.442749,402.802643 409.104950,403.862671 411.912842,405.653320 
	C410.412720,401.561676 409.372162,398.723572 408.719177,395.869232 
	C411.514221,393.299286 414.336212,391.021637 416.254272,388.141937 
	C422.943115,378.099579 428.235138,367.576660 427.034241,354.848267 
	C426.296326,347.027435 421.409332,338.559052 415.902832,336.662018 
	C414.852203,334.828918 414.201691,333.010223 412.934174,331.888855 
	C404.343994,324.288940 394.447144,319.889313 382.768890,319.885406 
	C381.116974,319.884827 379.007477,319.415710 377.896942,318.346100 
	C374.101074,314.690338 370.656372,310.669891 367.116180,306.415283 
	C366.407959,299.514801 366.608643,292.677612 364.606964,286.561188 
	C363.078583,281.891144 361.447937,275.652802 354.354095,274.907837 
	C354.225250,274.372833 354.067139,274.121704 353.912598,273.509827 
	C354.107666,270.097382 354.182709,267.118896 354.710266,264.150909 
	C356.493683,264.130249 357.824585,264.072418 359.155457,264.071899 
	C434.380646,264.042480 509.605865,264.023529 584.831055,263.967621 
	C587.299805,263.965790 589.768311,263.592651 592.684326,263.450623 
	C642.936157,263.640381 692.740601,263.773468 742.545044,263.892242 
	C743.370056,263.894226 744.195435,263.721558 745.469360,263.744385 
	C750.273071,263.736145 754.628113,263.613922 758.983093,263.491669 
z"/>
<path fill="#747484" opacity="1.000000" stroke="none" 
	d="
M638.969482,762.559326 
	C643.460510,762.338318 647.750427,761.641113 651.075317,757.244507 
	C651.678528,756.572693 651.848511,756.287964 652.018494,756.003174 
	C652.018494,756.003174 651.995117,755.997314 652.324341,755.907593 
	C654.545410,754.205811 656.516418,752.677246 658.317139,750.969177 
	C684.470215,726.161682 710.659546,701.391724 736.696899,676.463196 
	C743.625366,669.829834 750.071045,662.692261 756.738342,655.786194 
	C758.755798,652.438049 760.773254,649.089966 763.058655,645.031982 
	C763.167053,640.869324 763.007507,637.416626 762.847961,633.963867 
	C762.754150,601.972473 762.612610,569.981201 762.575745,537.989746 
	C762.480347,455.171265 762.428101,372.352692 762.373901,289.534180 
	C762.371765,286.205627 762.525879,282.876923 762.748291,279.135132 
	C763.712891,279.042755 764.536316,279.363525 765.769958,280.142883 
	C767.391418,285.502350 769.065186,290.347443 769.665649,295.322083 
	C770.134399,299.205109 768.990540,303.253479 769.053711,307.220581 
	C769.201721,316.519104 769.929138,325.813965 769.896851,335.108490 
	C769.854309,347.353302 769.164856,359.594635 769.017883,371.840637 
	C768.858398,385.126678 769.004150,398.416351 769.013733,411.704437 
	C769.020264,420.827820 768.923157,429.952667 769.055725,439.074158 
	C769.163574,446.496124 769.873657,453.920105 769.739746,461.332794 
	C769.364685,482.095001 768.443176,502.848999 768.209595,523.611572 
	C768.004700,541.821838 768.268433,560.043518 768.725037,578.250183 
	C768.824646,582.224182 767.222107,587.143799 772.027954,590.452026 
	C771.738403,594.864929 771.443481,598.827393 771.110168,602.786621 
	C768.970886,628.202148 766.823059,653.616882 764.327881,679.070740 
	C755.542542,681.773804 749.240051,687.184143 744.120239,694.245789 
	C741.997314,697.173767 739.735352,700.085510 737.107788,702.546814 
	C729.617188,709.562927 721.809082,716.240295 714.330017,723.268188 
	C711.344177,726.073914 709.134521,729.705200 706.150818,732.513672 
	C699.009949,739.235229 690.925476,745.084473 684.512573,752.414978 
	C677.173340,760.804443 669.881104,768.718201 658.968811,772.250549 
	C652.966919,774.193481 647.031799,777.173706 640.898010,777.691772 
	C630.563782,778.564636 620.094299,777.932617 609.683899,777.780579 
	C599.045593,777.625305 588.404846,776.991028 577.775452,777.171936 
	C573.517822,777.244324 569.287659,778.933594 564.600403,779.911865 
	C562.329529,779.851807 560.497070,779.835754 558.677979,779.670898 
	C545.768066,778.499939 532.860840,777.298523 519.499878,776.089722 
	C508.015900,775.416260 496.984772,774.759949 485.533081,774.065674 
	C479.738647,773.357300 474.364777,772.686768 469.178040,771.704468 
	C472.342804,770.601501 475.304016,769.198669 478.300720,769.118164 
	C498.057007,768.588196 517.820129,768.161621 537.582703,768.065125 
	C551.981079,767.994873 566.381409,768.547546 580.782227,768.704041 
	C596.535339,768.875244 612.289856,768.918640 628.043945,768.993225 
	C629.868713,769.001831 631.708069,768.969727 633.516479,768.753784 
	C637.122742,768.323181 639.443054,766.639404 638.969482,762.559326 
z"/>
<path fill="#47868A" opacity="1.000000" stroke="none" 
	d="
M796.219543,296.027771 
	C806.609741,296.601746 813.253784,303.002411 812.894653,313.263519 
	C812.354370,328.704010 811.277893,344.130646 810.178894,359.545349 
	C808.926025,377.118378 807.352844,394.668335 806.001648,412.234650 
	C804.344666,433.777405 802.776550,455.326965 801.164246,476.873138 
	C799.774963,495.439758 798.294373,514.000000 797.004089,532.573486 
	C795.287781,557.279236 793.261963,581.977051 792.286621,606.714478 
	C791.837158,618.112000 793.357727,629.613586 794.357666,641.035339 
	C795.720154,656.597839 797.625183,672.113220 798.960938,687.677673 
	C800.936584,710.697815 802.549438,733.748840 804.454163,756.775391 
	C805.254761,766.454407 800.594543,773.336365 791.221313,775.663696 
	C777.989685,778.949036 776.914856,780.135742 774.726013,793.876099 
	C772.732178,806.391968 768.055176,812.382629 758.528015,813.695374 
	C752.612915,814.510437 746.555176,815.230469 740.631348,814.863892 
	C723.545410,813.806458 706.496704,812.154297 689.429932,810.778625 
	C677.502930,809.817322 665.568909,808.943420 653.640442,808.000061 
	C640.217224,806.938477 626.794983,805.864563 613.375610,804.754883 
	C602.941833,803.892212 592.527893,802.696594 582.079041,802.130493 
	C565.141968,801.212769 548.170105,799.934631 531.238342,800.235352 
	C517.327942,800.482483 503.462952,802.894958 489.562042,804.176636 
	C477.978577,805.244629 466.369385,806.030457 454.776764,807.003052 
	C440.532562,808.198181 426.289886,809.414856 412.053528,810.699341 
	C392.846954,812.432312 373.654175,814.321411 354.441986,815.988220 
	C338.382019,817.381470 322.311646,818.685120 306.228241,819.766113 
	C297.782593,820.333740 289.535034,819.827515 283.633301,812.228271 
	C280.422699,808.094238 279.149780,803.753052 281.227173,798.142944 
	C282.738617,797.414062 283.863770,797.243835 285.078979,797.440857 
	C288.274628,810.769958 291.502319,813.638855 304.849823,812.892639 
	C323.104645,811.872192 341.326477,810.234253 359.553284,808.748352 
	C374.962646,807.492126 390.360321,806.091248 405.760681,804.726196 
	C423.313263,803.170471 440.867645,801.632935 458.412750,799.996277 
	C477.119537,798.251160 495.783112,795.773315 514.527283,794.775085 
	C532.280457,793.829712 550.123047,793.994019 567.908569,794.417358 
	C580.520569,794.717651 593.103699,796.252502 605.698547,797.250793 
	C625.583191,798.826782 645.470398,800.372437 665.349792,802.012756 
	C678.604736,803.106506 691.836914,804.489563 705.099182,805.477295 
	C721.653381,806.710144 738.144165,809.463745 754.855408,807.127502 
	C763.968018,805.853516 768.225647,801.873413 768.948364,792.720886 
	C769.040100,791.558777 768.998596,790.384094 769.127625,789.227356 
	C770.487366,777.041199 774.376648,772.723877 786.819458,769.542358 
	C796.173096,767.150696 798.129211,764.867432 797.945374,755.296326 
	C797.779358,746.651855 797.462769,737.992615 796.734009,729.380371 
	C795.304260,712.483643 793.521484,695.617004 791.923706,678.734192 
	C790.780212,666.651917 790.427307,654.442200 788.435364,642.503967 
	C784.667297,619.921570 786.201965,597.345337 787.263672,574.765076 
	C788.114441,556.671997 789.659912,538.609924 791.010254,520.542542 
	C792.026367,506.947510 793.213562,493.365173 794.339783,479.778473 
	C795.548096,465.200317 796.873230,450.631012 797.965515,436.044250 
	C799.144836,420.293854 799.934631,404.513123 801.218201,388.772034 
	C802.974243,367.235413 805.159790,345.733521 806.860291,324.192963 
	C807.194824,319.954529 806.630920,315.495972 805.636841,311.341003 
	C804.493347,306.561798 801.746155,302.792725 795.935059,302.568359 
	C796.018616,300.096893 796.119080,298.062347 796.219543,296.027771 
z"/>
<path fill="#89899B" opacity="1.000000" stroke="none" 
	d="
M263.285767,408.904510 
	C263.472931,410.541931 263.823608,412.179321 263.823914,413.816772 
	C263.846649,526.463318 263.841736,639.109863 263.832764,751.756409 
	C263.832642,753.255188 263.750702,754.754028 263.247498,756.564575 
	C255.219849,756.341003 247.651627,755.805542 240.083389,755.270081 
	C231.464783,754.520691 231.240402,754.500366 232.020691,745.887817 
	C234.839066,714.779236 237.846207,683.687744 240.734787,652.585449 
	C242.885941,629.423340 244.906616,606.249023 247.092712,583.090271 
	C248.841553,564.563904 250.798401,546.057190 252.566086,527.532532 
	C253.212936,520.753784 253.581085,513.948425 254.235474,506.316956 
	C254.928101,500.365112 255.560318,495.259521 255.978500,490.136444 
	C258.099426,464.153534 260.155396,438.165283 262.282288,412.182831 
	C262.373383,411.070129 262.940460,409.996399 263.285767,408.904510 
z"/>
<path fill="#89899B" opacity="1.000000" stroke="none" 
	d="
M315.147980,264.847290 
	C310.545166,264.554962 305.945648,264.102112 301.338776,264.007416 
	C294.187775,263.860413 287.031708,263.957336 279.414398,263.860168 
	C279.634094,256.314209 280.469421,248.868484 280.934662,241.399719 
	C281.159332,237.793121 282.912781,236.820206 286.096771,237.091187 
	C303.169556,238.544128 320.245575,239.959045 337.317780,241.418640 
	C355.052063,242.934830 372.782562,244.495255 390.515991,246.021240 
	C411.398773,247.818192 432.280487,249.628311 453.167267,251.377991 
	C472.229065,252.974792 491.297424,254.493332 510.361725,256.060303 
	C513.013550,256.278259 515.658813,256.576019 519.168823,256.882568 
	C539.234924,258.366333 558.444824,259.735016 577.639587,261.290527 
	C582.530090,261.686829 587.372437,262.675873 592.236938,263.392578 
	C589.768311,263.592651 587.299805,263.965790 584.831055,263.967621 
	C509.605865,264.023529 434.380646,264.042480 359.155457,264.071899 
	C357.824585,264.072418 356.493683,264.130249 354.658386,263.774902 
	C352.431549,261.295959 351.026581,257.890320 348.921387,257.381409 
	C344.388092,256.285583 339.195343,255.556946 334.817780,256.723785 
	C328.022247,258.535248 321.681519,262.052917 315.147980,264.847290 
z"/>
<path fill="#506571" opacity="1.000000" stroke="none" 
	d="
M263.330933,408.479736 
	C262.940460,409.996399 262.373383,411.070129 262.282288,412.182831 
	C260.155396,438.165283 258.099426,464.153534 255.978500,490.136444 
	C255.560318,495.259521 254.928101,500.365112 254.222565,505.878387 
	C253.039154,496.860840 251.922897,487.453552 251.036789,478.024597 
	C248.748077,453.670349 246.545807,429.307892 244.338120,404.946106 
	C242.535812,385.057648 240.784119,365.164642 238.994049,345.275085 
	C237.457626,328.203857 235.898895,311.134613 234.347580,294.064728 
	C234.317444,293.733246 234.249023,293.405365 234.211670,293.074341 
	C233.105881,283.274353 233.818466,282.573486 243.570099,281.973877 
	C249.876572,281.586060 256.155334,280.747437 262.822266,280.103027 
	C263.323975,293.527954 263.553650,306.960663 263.554688,320.393372 
	C263.556976,349.613922 263.442688,378.834442 263.330933,408.479736 
z"/>
<path fill="#506571" opacity="1.000000" stroke="none" 
	d="
M592.684326,263.450623 
	C587.372437,262.675873 582.530090,261.686829 577.639587,261.290527 
	C558.444824,259.735016 539.234924,258.366333 519.597168,256.897400 
	C530.544739,255.590088 541.913940,254.194260 553.309204,253.060242 
	C583.419189,250.063751 613.541077,247.185486 643.657288,244.251190 
	C672.120605,241.477936 700.577026,238.631760 729.048218,235.941833 
	C741.615601,234.754486 741.621887,234.894653 743.146362,247.772736 
	C743.282898,248.925766 743.586121,250.059082 743.895752,252.030350 
	C744.326599,256.449554 744.673584,260.039978 745.020630,263.630402 
	C744.195435,263.721558 743.370056,263.894226 742.545044,263.892242 
	C692.740601,263.773468 642.936157,263.640381 592.684326,263.450623 
z"/>
<path fill="#838498" opacity="1.000000" stroke="none" 
	d="
M796.213257,295.608582 
	C796.119080,298.062347 796.018616,300.096893 795.803894,302.932617 
	C795.501526,305.830292 795.313354,307.926819 795.080933,310.456543 
	C794.566101,316.357117 794.079468,321.823242 793.627869,327.292236 
	C791.739563,350.160187 789.861450,373.028992 787.980225,395.897522 
	C786.453491,414.457092 784.915283,433.015717 783.404419,451.576569 
	C781.574951,474.050995 779.768860,496.527313 777.635437,518.791626 
	C776.876831,516.539185 775.986877,514.480286 776.066711,512.459595 
	C776.591858,499.169800 777.627319,485.894745 777.913330,472.602356 
	C778.248962,457.007233 778.127563,441.397919 777.958984,425.797424 
	C777.739990,405.533417 777.147217,385.273254 776.962341,365.009186 
	C776.799988,347.208923 776.398193,329.378662 777.222717,311.613647 
	C777.719116,300.919006 778.323547,290.388794 775.993103,279.876831 
	C781.097534,279.999725 786.203003,280.088989 791.305969,280.256012 
	C795.531738,280.394287 797.669373,282.339905 797.002441,286.841003 
	C796.593323,289.602478 796.462708,292.405212 796.213257,295.608582 
z"/>
<path fill="#7A7A8C" opacity="1.000000" stroke="none" 
	d="
M775.642822,279.717255 
	C778.323547,290.388794 777.719116,300.919006 777.222717,311.613647 
	C776.398193,329.378662 776.799988,347.208923 776.962341,365.009186 
	C777.147217,385.273254 777.739990,405.533417 777.958984,425.797424 
	C778.127563,441.397919 778.248962,457.007233 777.913330,472.602356 
	C777.627319,485.894745 776.591858,499.169800 776.066711,512.459595 
	C775.986877,514.480286 776.876831,516.539185 777.656494,519.237488 
	C776.765259,532.901245 775.463806,545.901611 774.330811,558.916748 
	C773.513916,568.300659 772.921387,577.704163 772.208862,587.460938 
	C772.127441,588.548645 772.066162,589.274353 772.004883,590.000000 
	C767.222107,587.143799 768.824646,582.224182 768.725037,578.250183 
	C768.268433,560.043518 768.004700,541.821838 768.209595,523.611572 
	C768.443176,502.848999 769.364685,482.095001 769.739746,461.332794 
	C769.873657,453.920105 769.163574,446.496124 769.055725,439.074158 
	C768.923157,429.952667 769.020264,420.827820 769.013733,411.704437 
	C769.004150,398.416351 768.858398,385.126678 769.017883,371.840637 
	C769.164856,359.594635 769.854309,347.353302 769.896851,335.108490 
	C769.929138,325.813965 769.201721,316.519104 769.053711,307.220581 
	C768.990540,303.253479 770.134399,299.205109 769.665649,295.322083 
	C769.065186,290.347443 767.391418,285.502350 766.083862,280.243958 
	C769.089233,279.776917 772.190918,279.667297 775.642822,279.717255 
z"/>
<path fill="#506571" opacity="1.000000" stroke="none" 
	d="
M284.988953,797.073608 
	C283.863770,797.243835 282.738617,797.414062 281.314545,797.746826 
	C277.099487,798.392944 274.738861,797.277771 274.731415,792.725952 
	C274.725037,788.799438 274.134705,784.873901 273.857361,780.480957 
	C273.912170,780.013916 274.089264,779.992676 274.522888,779.993896 
	C279.707245,780.645508 284.439117,781.557495 289.211914,781.900757 
	C309.651276,783.370789 330.113068,784.538879 350.543396,786.118469 
	C356.729309,786.596741 362.840210,788.044983 368.626221,789.231567 
	C360.996338,790.079834 353.726532,790.754700 346.454865,791.409424 
	C333.052094,792.616089 319.643219,793.758301 306.247375,795.037292 
	C301.147217,795.524292 296.075897,796.313843 290.563202,796.968262 
	C288.419617,797.005188 286.704285,797.039368 284.988953,797.073608 
z"/>
<path fill="#A3C7C8" opacity="1.000000" stroke="none" 
	d="
M985.055664,965.077454 
	C987.750916,966.329773 990.121826,967.411865 994.119568,969.236450 
	C981.056458,973.180542 973.301147,980.999512 968.922546,992.943542 
	C964.881104,980.945251 956.914490,973.338806 945.077148,968.916626 
	C957.069885,964.854004 964.668152,956.879028 969.094238,945.141113 
	C972.272400,953.716003 977.055969,960.491211 985.055664,965.077454 
z"/>
<path fill="#437D81" opacity="1.000000" stroke="none" 
	d="
M240.069366,755.695801 
	C247.651627,755.805542 255.219849,756.341003 263.145569,757.035278 
	C262.744812,763.753174 267.486908,762.305542 271.592468,762.933716 
	C272.725525,768.948303 273.407379,774.470459 274.089233,779.992676 
	C274.089264,779.992676 273.912170,780.013916 273.821411,780.025208 
	C266.188049,778.351074 258.468506,777.211426 251.148636,774.838806 
	C242.476151,772.027893 239.943024,766.988159 240.069366,755.695801 
z"/>
<path fill="#47868A" opacity="1.000000" stroke="none" 
	d="
M745.469360,263.744385 
	C744.673584,260.039978 744.326599,256.449554 743.985291,252.431122 
	C747.643982,252.906708 751.775024,253.056259 754.789246,254.967331 
	C756.957458,256.342041 757.635742,260.066772 758.980835,263.117432 
	C754.628113,263.613922 750.273071,263.736145 745.469360,263.744385 
z"/>
<path fill="#6E4528" opacity="1.000000" stroke="none" 
	d="
M338.329224,384.439301 
	C337.855377,382.213013 337.381531,379.986694 336.815155,377.123901 
	C336.503540,375.983948 336.284454,375.480469 336.065369,374.976990 
	C335.858887,371.277771 335.652405,367.578583 335.554260,363.126831 
	C335.863739,360.259705 336.064880,358.145142 336.566956,355.851746 
	C337.060852,354.602570 337.253815,353.532196 337.391235,352.150085 
	C337.366699,351.629517 337.397766,351.420715 337.659729,351.553986 
	C340.087280,354.266510 342.053192,358.372253 344.521423,358.700470 
	C354.100586,359.974213 363.054596,357.047333 371.359467,352.586365 
	C371.246857,351.672302 371.320221,351.265137 371.151184,351.039886 
	C361.882874,338.687592 352.641327,326.314209 343.212280,314.085449 
	C342.509064,313.173462 340.168304,312.621429 339.064575,313.070740 
	C332.928467,315.568665 326.939362,318.427704 320.644409,320.967285 
	C319.482208,319.322754 318.575592,317.874146 317.978821,316.210785 
	C329.344818,311.135712 338.699768,303.999176 346.716095,294.998199 
	C348.105530,293.438080 350.028473,292.353088 351.949829,291.291412 
	C357.155670,296.618988 362.116699,301.703796 367.077728,306.788574 
	C370.656372,310.669891 374.101074,314.690338 377.896942,318.346100 
	C379.007477,319.415710 381.116974,319.884827 382.768890,319.885406 
	C394.447144,319.889313 404.343994,324.288940 412.934174,331.888855 
	C414.201691,333.010223 414.852203,334.828918 415.792297,337.058838 
	C415.204224,341.096313 414.611969,344.399963 413.792175,347.844849 
	C413.373505,348.656738 413.182434,349.327423 412.777435,350.261658 
	C409.984161,354.546509 407.612732,358.722443 404.767914,362.546204 
	C401.840210,366.481293 398.450897,370.072906 394.914673,373.913452 
	C391.708435,376.158051 388.851044,378.304016 385.610229,380.465088 
	C374.293762,386.720367 362.899506,391.427673 349.605743,390.976776 
	C347.929077,390.698883 346.632263,390.528961 345.047699,390.187531 
	C342.616394,388.157135 340.472809,386.298218 338.329224,384.439301 
z"/>
<path fill="#6E4528" opacity="1.000000" stroke="none" 
	d="
M314.837524,265.033691 
	C321.681519,262.052917 328.022247,258.535248 334.817780,256.723785 
	C339.195343,255.556946 344.388092,256.285583 348.921387,257.381409 
	C351.026581,257.890320 352.431549,261.295959 354.205841,263.764465 
	C354.182709,267.118896 354.107666,270.097382 353.608734,273.644287 
	C347.056885,285.392731 339.003601,294.744843 328.506470,302.204285 
	C320.068115,308.200775 310.684418,311.437775 300.489746,314.077393 
	C296.737732,313.353607 293.407288,312.585785 290.076843,311.817963 
	C285.076294,306.386902 285.876862,300.382965 288.363037,294.229431 
	C293.554657,281.379791 303.531616,272.838959 314.837524,265.033691 
z"/>
<path fill="#40525C" opacity="1.000000" stroke="none" 
	d="
M468.990936,772.016235 
	C474.364777,772.686768 479.738647,773.357300 485.374023,774.363403 
	C481.395142,775.650330 477.192505,777.164551 472.907501,777.452332 
	C456.996887,778.520935 441.041656,780.087769 425.135864,779.779846 
	C404.066650,779.371887 383.024170,777.439453 361.977417,776.052612 
	C337.282928,774.425293 312.581329,772.859375 287.920288,770.814941 
	C283.677124,770.463196 279.538788,768.040527 275.509308,766.225281 
	C273.155823,765.165039 273.075226,763.605286 275.836273,762.650024 
	C297.395081,762.518799 318.953735,762.354004 340.512726,762.273987 
	C348.309814,762.245056 356.107605,762.419128 364.472321,762.933472 
	C366.857910,763.905823 368.648132,764.774536 370.499084,764.932861 
	C386.068054,766.264587 401.640747,767.570923 417.226959,768.678711 
	C434.473541,769.904663 451.735596,770.913147 468.990936,772.016235 
z"/>
<path fill="#485A65" opacity="1.000000" stroke="none" 
	d="
M275.469910,762.514893 
	C273.075226,763.605286 273.155823,765.165039 275.509308,766.225281 
	C279.538788,768.040527 283.677124,770.463196 287.920288,770.814941 
	C312.581329,772.859375 337.282928,774.425293 361.977417,776.052612 
	C383.024170,777.439453 404.066650,779.371887 425.135864,779.779846 
	C441.041656,780.087769 456.996887,778.520935 472.907501,777.452332 
	C477.192505,777.164551 481.395142,775.650330 485.794617,774.401367 
	C496.984772,774.759949 508.015900,775.416260 519.168030,776.265869 
	C504.107635,777.972351 488.938171,779.620605 473.741699,780.963135 
	C456.048645,782.526062 438.334930,783.860046 420.624664,785.221619 
	C403.415253,786.544678 386.198822,787.776855 368.985474,789.048950 
	C362.840210,788.044983 356.729309,786.596741 350.543396,786.118469 
	C330.113068,784.538879 309.651276,783.370789 289.211914,781.900757 
	C284.439117,781.557495 279.707245,780.645508 274.522888,779.993896 
	C273.407379,774.470459 272.725525,768.948303 272.035583,763.038940 
	C273.052826,762.561157 274.078217,762.470459 275.469910,762.514893 
z"/>
<path fill="#6B6C7C" opacity="1.000000" stroke="none" 
	d="
M469.178040,771.704468 
	C451.735596,770.913147 434.473541,769.904663 417.226959,768.678711 
	C401.640747,767.570923 386.068054,766.264587 370.499084,764.932861 
	C368.648132,764.774536 366.857910,763.905823 364.916809,763.035278 
	C366.267212,762.524170 367.740356,762.186646 369.213470,762.186523 
	C457.997223,762.179626 546.780945,762.200012 635.564697,762.223633 
	C636.396179,762.223877 637.227661,762.301208 638.514282,762.450928 
	C639.443054,766.639404 637.122742,768.323181 633.516479,768.753784 
	C631.708069,768.969727 629.868713,769.001831 628.043945,768.993225 
	C612.289856,768.918640 596.535339,768.875244 580.782227,768.704041 
	C566.381409,768.547546 551.981079,767.994873 537.582703,768.065125 
	C517.820129,768.161621 498.057007,768.588196 478.300720,769.118164 
	C475.304016,769.198669 472.342804,770.601501 469.178040,771.704468 
z"/>
<path fill="#CBC096" opacity="1.000000" stroke="none" 
	d="
M756.382690,655.830444 
	C750.071045,662.692261 743.625366,669.829834 736.696899,676.463196 
	C710.659546,701.391724 684.470215,726.161682 658.317139,750.969177 
	C656.516418,752.677246 654.545410,754.205811 652.329956,755.918091 
	C655.143555,749.163757 658.280823,742.309143 661.978210,735.117798 
	C668.396973,730.789185 671.284668,724.840759 674.186218,718.586731 
	C676.402161,713.810608 679.377563,708.002197 683.627441,705.876831 
	C690.102112,702.638794 694.861694,698.060486 698.741760,692.681763 
	C705.310608,683.575562 711.506714,674.490173 722.937378,670.768677 
	C724.326843,670.316345 725.011353,667.698792 726.022644,666.084778 
	C736.024109,662.681396 746.025513,659.278015 756.382690,655.830444 
z"/>
<path fill="#D6CA9D" opacity="1.000000" stroke="none" 
	d="
M725.590027,666.067566 
	C725.011353,667.698792 724.326843,670.316345 722.937378,670.768677 
	C711.506714,674.490173 705.310608,683.575562 698.741760,692.681763 
	C694.861694,698.060486 690.102112,702.638794 683.627441,705.876831 
	C679.377563,708.002197 676.402161,713.810608 674.186218,718.586731 
	C671.284668,724.840759 668.396973,730.789185 662.188599,734.847168 
	C664.014099,723.192932 666.589294,711.528320 668.232056,699.733704 
	C669.439941,691.061340 669.630493,682.224548 669.868896,673.450012 
	C669.979614,669.376160 671.397095,668.016724 675.459656,667.906311 
	C692.030151,667.456299 708.592224,666.696228 725.590027,666.067566 
z"/>
<path fill="#E7DCB1" opacity="1.000000" stroke="none" 
	d="
M289.969574,312.179749 
	C293.407288,312.585785 296.737732,313.353607 300.516205,314.285614 
	C300.964233,314.449799 301.121002,314.838806 300.973114,315.194977 
	C301.469482,318.434601 301.406952,321.807220 302.964966,324.058228 
	C304.403748,326.136993 307.422333,327.530457 310.020477,328.323242 
	C318.296936,330.848633 325.018372,335.141571 329.648193,342.681335 
	C330.625275,344.272552 333.070587,344.962189 335.063507,346.285828 
	C336.001343,348.073578 336.715088,349.642731 337.428833,351.211884 
	C337.397766,351.420715 337.366699,351.629517 337.122253,352.362701 
	C336.694550,353.934906 336.480316,354.982727 336.266052,356.030548 
	C336.064880,358.145142 335.863739,360.259705 335.471802,362.714111 
	C333.519714,361.651489 331.496948,360.473938 330.054443,358.797180 
	C327.482544,355.807587 325.125122,352.607849 322.922333,349.331726 
	C318.621979,342.935944 311.886322,340.481842 305.094208,338.324951 
	C295.485626,335.273804 289.206451,328.122925 288.457916,318.200531 
	C288.319061,316.359955 289.363831,314.430145 289.969574,312.179749 
z"/>
<path fill="#E7DCB1" opacity="1.000000" stroke="none" 
	d="
M338.114319,384.783936 
	C340.472809,386.298218 342.616394,388.157135 345.005310,390.619446 
	C345.957825,402.102997 354.346130,408.902496 366.108673,406.606110 
	C376.265442,404.623199 386.114685,401.028625 396.045471,397.969818 
	C397.315033,397.578766 398.256226,396.121552 399.642517,395.346924 
	C401.662750,397.561707 403.390015,399.587830 405.117249,401.613953 
	C403.651428,403.050629 402.430511,405.202789 400.678223,405.802551 
	C392.216583,408.698792 383.709808,411.589325 375.022003,413.652069 
	C369.657196,414.925842 363.875946,415.476013 358.392700,415.018860 
	C344.327820,413.846100 338.228455,400.944580 336.325684,390.203369 
	C336.051086,388.653351 337.336121,386.827026 338.114319,384.783936 
z"/>
<path fill="#E7DCB1" opacity="1.000000" stroke="none" 
	d="
M414.019714,347.703613 
	C414.611969,344.399963 415.204224,341.096313 415.906982,337.395844 
	C421.409332,338.559052 426.296326,347.027435 427.034241,354.848267 
	C428.235138,367.576660 422.943115,378.099579 416.254272,388.141937 
	C414.336212,391.021637 411.514221,393.299286 408.518677,395.642639 
	C406.933319,393.308838 405.935974,391.185333 405.267517,388.943970 
	C407.953278,385.080353 410.464813,381.421692 412.633331,377.569885 
	C416.580109,370.559540 420.215424,363.419342 418.934570,354.911957 
	C418.447083,351.674042 417.963409,348.537567 414.019714,347.703613 
z"/>
<path fill="#A56C40" opacity="1.000000" stroke="none" 
	d="
M301.121002,314.838806 
	C301.121002,314.838806 300.964233,314.449799 300.937805,314.241577 
	C310.684418,311.437775 320.068115,308.200775 328.506470,302.204285 
	C339.003601,294.744843 347.056885,285.392731 353.488708,274.078308 
	C354.067139,274.121704 354.225250,274.372833 354.225647,275.257294 
	C353.357941,280.894440 352.531464,285.971558 351.705017,291.048645 
	C350.028473,292.353088 348.105530,293.438080 346.716095,294.998199 
	C338.699768,303.999176 329.344818,311.135712 317.551971,316.162292 
	C311.583832,315.831970 306.352417,315.335388 301.121002,314.838806 
z"/>
<path fill="#E7DCB1" opacity="1.000000" stroke="none" 
	d="
M351.949829,291.291443 
	C352.531464,285.971558 353.357941,280.894440 354.312805,275.467896 
	C361.447937,275.652802 363.078583,281.891144 364.606964,286.561188 
	C366.608643,292.677612 366.407959,299.514801 367.116180,306.415283 
	C362.116699,301.703796 357.155670,296.618988 351.949829,291.291443 
z"/>
<path fill="#40525C" opacity="1.000000" stroke="none" 
	d="
M404.938660,389.061829 
	C405.935974,391.185333 406.933319,393.308838 408.131134,395.658875 
	C409.372162,398.723572 410.412720,401.561676 411.912842,405.653320 
	C409.104950,403.862671 407.442749,402.802643 405.448914,401.678284 
	C403.390015,399.587830 401.662750,397.561707 399.507751,395.066345 
	C396.443573,391.824402 393.807159,389.051697 391.063354,385.987061 
	C389.301849,383.946716 387.647766,382.198334 385.993683,380.449951 
	C388.851044,378.304016 391.708435,376.158051 395.158142,374.150543 
	C397.444550,376.986237 399.138580,379.683441 400.892700,382.704468 
	C402.281403,385.039459 403.610016,387.050659 404.938660,389.061829 
z"/>
<path fill="#89899B" opacity="1.000000" stroke="none" 
	d="
M762.721008,634.336548 
	C763.007507,637.416626 763.167053,640.869324 763.130859,644.673584 
	C762.821472,641.586426 762.707764,638.147766 762.721008,634.336548 
z"/>
<path fill="#E7DCB1" opacity="1.000000" stroke="none" 
	d="
M335.931824,375.152039 
	C336.284454,375.480469 336.503540,375.983948 336.673950,376.762329 
	C336.349609,376.467224 336.073914,375.897156 335.931824,375.152039 
z"/>
<path fill="#CBC096" opacity="1.000000" stroke="none" 
	d="
M651.796509,756.122131 
	C651.848511,756.287964 651.678528,756.572693 651.282776,756.973145 
	C651.229553,756.806274 651.402039,756.523682 651.796509,756.122131 
z"/>
<path fill="#41787C" opacity="1.000000" stroke="none" 
	d="
M368.626221,789.231567 
	C386.198822,787.776855 403.415253,786.544678 420.624664,785.221619 
	C438.334930,783.860046 456.048645,782.526062 473.741699,780.963135 
	C488.938171,779.620605 504.107635,777.972351 519.620911,776.283081 
	C532.860840,777.298523 545.768066,778.499939 558.677979,779.670898 
	C560.497070,779.835754 562.329529,779.851807 565.026123,779.942749 
	C576.621948,780.956482 587.341248,782.037170 598.074646,782.952759 
	C610.290527,783.994812 622.512817,784.982178 634.744629,785.811951 
	C641.516052,786.271362 648.312622,786.359863 655.459290,786.687012 
	C656.555908,786.821228 657.291077,786.884155 658.228394,787.144653 
	C658.959900,787.511292 659.489319,787.680359 660.484863,787.878540 
	C690.447571,790.070923 719.953430,792.120667 749.431274,794.515320 
	C754.025635,794.888550 756.004761,794.445312 756.264282,789.202209 
	C756.797424,778.431519 758.104370,767.699036 759.526367,756.961609 
	C763.636780,756.634155 767.313660,756.295959 771.420410,755.962585 
	C776.139526,755.491028 780.435791,755.069641 784.715576,754.520325 
	C787.955200,754.104492 788.947693,752.425476 788.585266,748.984985 
	C786.881531,732.811768 785.580688,716.596436 783.955261,700.414307 
	C783.169495,692.591248 781.985535,684.808228 780.978638,676.547363 
	C780.284546,668.387756 779.593689,660.687866 778.908447,652.546692 
	C778.913391,651.439636 778.960388,650.769958 778.905273,650.108765 
	C777.247803,630.240234 775.604065,610.370422 773.855225,590.509888 
	C773.751648,589.334229 772.790771,588.234192 772.228882,587.098938 
	C772.921387,577.704163 773.513916,568.300659 774.330811,558.916748 
	C775.463806,545.901611 776.765259,532.901245 777.973633,519.448669 
	C779.768860,496.527313 781.574951,474.050995 783.404419,451.576569 
	C784.915283,433.015717 786.453491,414.457092 787.980225,395.897522 
	C789.861450,373.028992 791.739563,350.160187 793.627869,327.292236 
	C794.079468,321.823242 794.566101,316.357117 795.434387,310.498932 
	C800.880188,311.556335 800.517883,316.038513 800.313843,319.568817 
	C798.673401,347.945129 796.893127,376.315796 794.827332,404.664276 
	C793.136414,427.869476 790.880188,451.032959 789.084473,474.231201 
	C787.237305,498.093811 785.798950,521.988464 783.896362,545.846313 
	C782.019592,569.381287 779.706055,592.892944 781.040466,616.541260 
	C781.564209,625.823364 782.576843,635.077576 783.351807,644.345825 
	C783.587036,647.159302 783.794067,649.975464 783.976013,652.792847 
	C784.561096,661.852417 785.013306,670.922180 785.727295,679.971375 
	C787.073242,697.033875 788.628906,714.079956 789.960510,731.143494 
	C790.374207,736.444641 789.901062,741.840576 790.611572,747.087830 
	C792.139465,758.371277 790.202637,761.859131 779.254395,764.904236 
	C773.921265,766.387573 769.667847,769.241028 767.885132,774.476868 
	C766.189392,779.457275 765.167480,784.695435 764.186584,789.883972 
	C762.835266,797.032288 759.531982,799.830505 752.246399,801.006470 
	C737.527954,803.382202 723.036926,800.482849 708.492798,799.482666 
	C689.279724,798.161316 670.131775,795.920471 650.938416,794.278687 
	C631.731934,792.635864 612.526733,790.747192 593.279785,789.869202 
	C569.685730,788.792969 545.993835,787.401001 522.444702,788.433899 
	C494.251556,789.670410 466.175385,793.450073 438.028229,795.894043 
	C412.692749,798.093933 387.330841,799.989868 361.978577,801.994873 
	C349.055328,803.016907 336.122925,803.926392 323.204407,805.003723 
	C317.904358,805.445801 312.625488,806.159668 307.345001,806.814636 
	C298.429138,807.920715 292.605194,804.435974 290.991455,796.965515 
	C296.075897,796.313843 301.147217,795.524292 306.247375,795.037292 
	C319.643219,793.758301 333.052094,792.616089 346.454865,791.409424 
	C353.726532,790.754700 360.996338,790.079834 368.626221,789.231567 
z"/>
<path fill="#7A7A8C" opacity="1.000000" stroke="none" 
	d="
M655.097900,786.615601 
	C648.312622,786.359863 641.516052,786.271362 634.744629,785.811951 
	C622.512817,784.982178 610.290527,783.994812 598.074646,782.952759 
	C587.341248,782.037170 576.621948,780.956482 565.470703,779.917786 
	C569.287659,778.933594 573.517822,777.244324 577.775452,777.171936 
	C588.404846,776.991028 599.045593,777.625305 609.683899,777.780579 
	C620.094299,777.932617 630.563782,778.564636 640.898010,777.691772 
	C647.031799,777.173706 652.966919,774.193481 658.968811,772.250549 
	C669.881104,768.718201 677.173340,760.804443 684.512573,752.414978 
	C690.925476,745.084473 699.009949,739.235229 706.150818,732.513672 
	C709.134521,729.705200 711.344177,726.073914 714.330017,723.268188 
	C721.809082,716.240295 729.617188,709.562927 737.107788,702.546814 
	C739.735352,700.085510 741.997314,697.173767 744.120239,694.245789 
	C749.240051,687.184143 755.542542,681.773804 764.360962,679.481079 
	C764.437988,682.916992 764.131775,685.981384 763.475220,689.076843 
	C755.950317,691.384583 752.199036,697.364685 748.057190,702.953796 
	C746.392273,705.200623 744.883789,707.815613 742.674011,709.363342 
	C732.254700,716.660645 723.129028,725.232239 715.420532,735.345581 
	C714.328857,736.777832 712.925354,737.977966 711.629578,739.248291 
	C703.107117,747.603088 694.653625,756.030518 686.012207,764.260620 
	C681.720947,768.347595 677.400574,772.551819 672.496094,775.801575 
	C668.403320,778.513428 663.322998,779.689331 658.923279,782.007141 
	C657.291748,782.866760 656.352722,785.040955 655.097900,786.615601 
z"/>
<path fill="#40525C" opacity="1.000000" stroke="none" 
	d="
M763.825562,689.045837 
	C764.131775,685.981384 764.437988,682.916992 764.711121,679.442261 
	C766.823059,653.616882 768.970886,628.202148 771.110168,602.786621 
	C771.443481,598.827393 771.738403,594.864929 772.027954,590.452026 
	C772.066162,589.274353 772.127441,588.548645 772.208862,587.460938 
	C772.790771,588.234192 773.751648,589.334229 773.855225,590.509888 
	C775.604065,610.370422 777.247803,630.240234 778.905273,650.108765 
	C778.960388,650.769958 778.913391,651.439636 778.599548,652.703613 
	C777.221252,655.987793 775.624817,658.591125 775.192871,661.375183 
	C773.875305,669.866882 773.114746,678.443298 771.927307,686.957458 
	C771.041626,693.307861 768.786377,699.069763 763.494263,702.726685 
	C763.593872,697.847961 763.709717,693.446899 763.825562,689.045837 
z"/>
<path fill="#437D81" opacity="1.000000" stroke="none" 
	d="
M290.563202,796.968262 
	C292.605194,804.435974 298.429138,807.920715 307.345001,806.814636 
	C312.625488,806.159668 317.904358,805.445801 323.204407,805.003723 
	C336.122925,803.926392 349.055328,803.016907 361.978577,801.994873 
	C387.330841,799.989868 412.692749,798.093933 438.028229,795.894043 
	C466.175385,793.450073 494.251556,789.670410 522.444702,788.433899 
	C545.993835,787.401001 569.685730,788.792969 593.279785,789.869202 
	C612.526733,790.747192 631.731934,792.635864 650.938416,794.278687 
	C670.131775,795.920471 689.279724,798.161316 708.492798,799.482666 
	C723.036926,800.482849 737.527954,803.382202 752.246399,801.006470 
	C759.531982,799.830505 762.835266,797.032288 764.186584,789.883972 
	C765.167480,784.695435 766.189392,779.457275 767.885132,774.476868 
	C769.667847,769.241028 773.921265,766.387573 779.254395,764.904236 
	C790.202637,761.859131 792.139465,758.371277 790.611572,747.087830 
	C789.901062,741.840576 790.374207,736.444641 789.960510,731.143494 
	C788.628906,714.079956 787.073242,697.033875 785.727295,679.971375 
	C785.013306,670.922180 784.561096,661.852417 783.976013,652.792847 
	C783.794067,649.975464 783.587036,647.159302 783.351807,644.345825 
	C782.576843,635.077576 781.564209,625.823364 781.040466,616.541260 
	C779.706055,592.892944 782.019592,569.381287 783.896362,545.846313 
	C785.798950,521.988464 787.237305,498.093811 789.084473,474.231201 
	C790.880188,451.032959 793.136414,427.869476 794.827332,404.664276 
	C796.893127,376.315796 798.673401,347.945129 800.313843,319.568817 
	C800.517883,316.038513 800.880188,311.556335 795.478638,310.065796 
	C795.313354,307.926819 795.501526,305.830292 795.820862,303.369507 
	C801.746155,302.792725 804.493347,306.561798 805.636841,311.341003 
	C806.630920,315.495972 807.194824,319.954529 806.860291,324.192963 
	C805.159790,345.733521 802.974243,367.235413 801.218201,388.772034 
	C799.934631,404.513123 799.144836,420.293854 797.965515,436.044250 
	C796.873230,450.631012 795.548096,465.200317 794.339783,479.778473 
	C793.213562,493.365173 792.026367,506.947510 791.010254,520.542542 
	C789.659912,538.609924 788.114441,556.671997 787.263672,574.765076 
	C786.201965,597.345337 784.667297,619.921570 788.435364,642.503967 
	C790.427307,654.442200 790.780212,666.651917 791.923706,678.734192 
	C793.521484,695.617004 795.304260,712.483643 796.734009,729.380371 
	C797.462769,737.992615 797.779358,746.651855 797.945374,755.296326 
	C798.129211,764.867432 796.173096,767.150696 786.819458,769.542358 
	C774.376648,772.723877 770.487366,777.041199 769.127625,789.227356 
	C768.998596,790.384094 769.040100,791.558777 768.948364,792.720886 
	C768.225647,801.873413 763.968018,805.853516 754.855408,807.127502 
	C738.144165,809.463745 721.653381,806.710144 705.099182,805.477295 
	C691.836914,804.489563 678.604736,803.106506 665.349792,802.012756 
	C645.470398,800.372437 625.583191,798.826782 605.698547,797.250793 
	C593.103699,796.252502 580.520569,794.717651 567.908569,794.417358 
	C550.123047,793.994019 532.280457,793.829712 514.527283,794.775085 
	C495.783112,795.773315 477.119537,798.251160 458.412750,799.996277 
	C440.867645,801.632935 423.313263,803.170471 405.760681,804.726196 
	C390.360321,806.091248 374.962646,807.492126 359.553284,808.748352 
	C341.326477,810.234253 323.104645,811.872192 304.849823,812.892639 
	C291.502319,813.638855 288.274628,810.769958 285.078979,797.440918 
	C286.704285,797.039368 288.419617,797.005188 290.563202,796.968262 
z"/>
<path fill="#A56C40" opacity="1.000000" stroke="none" 
	d="
M337.659729,351.553986 
	C336.715088,349.642731 336.001343,348.073578 335.013855,345.940674 
	C330.126740,337.305695 325.513367,329.234436 320.899963,321.163177 
	C326.939362,318.427704 332.928467,315.568665 339.064575,313.070740 
	C340.168304,312.621429 342.509064,313.173462 343.212280,314.085449 
	C352.641327,326.314209 361.882874,338.687592 371.151184,351.039886 
	C371.320221,351.265137 371.246857,351.672302 371.359467,352.586365 
	C363.054596,357.047333 354.100586,359.974213 344.521423,358.700470 
	C342.053192,358.372253 340.087280,354.266510 337.659729,351.553986 
z"/>
<path fill="#CBC096" opacity="1.000000" stroke="none" 
	d="
M385.610229,380.465088 
	C387.647766,382.198334 389.301849,383.946716 391.015686,386.417053 
	C390.149078,388.988953 389.709900,391.706909 388.215790,392.545624 
	C379.628784,397.366180 370.694885,401.467773 360.460754,400.918396 
	C354.145081,400.579407 351.020905,397.564331 349.985565,391.084778 
	C362.899506,391.427673 374.293762,386.720367 385.610229,380.465088 
z"/>
<path fill="#D6CA9D" opacity="1.000000" stroke="none" 
	d="
M349.605743,390.976776 
	C351.020905,397.564331 354.145081,400.579407 360.460754,400.918396 
	C370.694885,401.467773 379.628784,397.366180 388.215790,392.545624 
	C389.709900,391.706909 390.149078,388.988953 391.123108,386.708984 
	C393.807159,389.051697 396.443573,391.824402 399.214752,394.877686 
	C398.256226,396.121552 397.315033,397.578766 396.045471,397.969818 
	C386.114685,401.028625 376.265442,404.623199 366.108673,406.606110 
	C354.346130,408.902496 345.957825,402.102997 345.293030,390.790955 
	C346.632263,390.528961 347.929077,390.698883 349.605743,390.976776 
z"/>
<path fill="#D6CA9D" opacity="1.000000" stroke="none" 
	d="
M320.644409,320.967285 
	C325.513367,329.234436 330.126740,337.305695 334.789795,345.722076 
	C333.070587,344.962189 330.625275,344.272552 329.648193,342.681335 
	C325.018372,335.141571 318.296936,330.848633 310.020477,328.323242 
	C307.422333,327.530457 304.403748,326.136993 302.964966,324.058228 
	C301.406952,321.807220 301.469482,318.434601 300.973114,315.194977 
	C306.352417,315.335388 311.583832,315.831970 317.242126,316.377045 
	C318.575592,317.874146 319.482208,319.322754 320.644409,320.967285 
z"/>
<path fill="#D6CA9D" opacity="1.000000" stroke="none" 
	d="
M405.267517,388.943970 
	C403.610016,387.050659 402.281403,385.039459 400.999908,382.344116 
	C402.046021,379.959015 402.946289,378.190063 404.063507,376.570740 
	C406.774811,372.640839 409.863312,368.944000 412.285767,364.849121 
	C415.056366,360.165802 416.637909,355.126678 412.991333,349.998077 
	C413.182434,349.327423 413.373505,348.656738 413.792175,347.844849 
	C417.963409,348.537567 418.447083,351.674042 418.934570,354.911957 
	C420.215424,363.419342 416.580109,370.559540 412.633331,377.569885 
	C410.464813,381.421692 407.953278,385.080353 405.267517,388.943970 
z"/>
<path fill="#CBC096" opacity="1.000000" stroke="none" 
	d="
M412.777405,350.261658 
	C416.637909,355.126678 415.056366,360.165802 412.285767,364.849121 
	C409.863312,368.944000 406.774811,372.640839 404.063507,376.570740 
	C402.946289,378.190063 402.046021,379.959015 400.939850,382.020294 
	C399.138580,379.683441 397.444550,376.986237 395.507019,374.051910 
	C398.450897,370.072906 401.840210,366.481293 404.767914,362.546204 
	C407.612732,358.722443 409.984161,354.546509 412.777405,350.261658 
z"/>
<path fill="#A56C40" opacity="1.000000" stroke="none" 
	d="
M336.566956,355.851746 
	C336.480316,354.982727 336.694550,353.934906 337.177795,352.674438 
	C337.253815,353.532196 337.060852,354.602570 336.566956,355.851746 
z"/>
<path fill="#84859A" opacity="1.000000" stroke="none" 
	d="
M763.475159,689.076843 
	C763.709717,693.446899 763.593872,697.847961 763.374756,703.049316 
	C761.878540,721.549988 760.485657,739.250427 759.092773,756.950867 
	C758.104370,767.699036 756.797424,778.431519 756.264282,789.202209 
	C756.004761,794.445312 754.025635,794.888550 749.431274,794.515320 
	C719.953430,792.120667 690.447571,790.070923 660.393250,787.676514 
	C659.232483,787.279236 658.629395,787.113159 658.026306,786.947083 
	C657.291077,786.884155 656.555908,786.821228 655.459290,786.687012 
	C656.352722,785.040955 657.291748,782.866760 658.923279,782.007141 
	C663.322998,779.689331 668.403320,778.513428 672.496094,775.801575 
	C677.400574,772.551819 681.720947,768.347595 686.012207,764.260620 
	C694.653625,756.030518 703.107117,747.603088 711.629578,739.248291 
	C712.925354,737.977966 714.328857,736.777832 715.420532,735.345581 
	C723.129028,725.232239 732.254700,716.660645 742.674011,709.363342 
	C744.883789,707.815613 746.392273,705.200623 748.057190,702.953796 
	C752.199036,697.364685 755.950317,691.384583 763.475159,689.076843 
z"/>
<path fill="#485A65" opacity="1.000000" stroke="none" 
	d="
M759.526367,756.961609 
	C760.485657,739.250427 761.878540,721.549988 763.390991,703.526978 
	C768.786377,699.069763 771.041626,693.307861 771.927307,686.957458 
	C773.114746,678.443298 773.875305,669.866882 775.192871,661.375183 
	C775.624817,658.591125 777.221252,655.987793 778.593994,653.144897 
	C779.593689,660.687866 780.284546,668.387756 780.793335,676.909302 
	C778.770142,689.348572 776.824707,700.950867 775.130432,712.589844 
	C774.246582,718.661804 772.767944,724.909729 773.409912,730.879028 
	C774.343384,739.559998 773.354309,747.749207 770.990540,755.957764 
	C767.313660,756.295959 763.636780,756.634155 759.526367,756.961609 
z"/>
<path fill="#506571" opacity="1.000000" stroke="none" 
	d="
M771.420410,755.962585 
	C773.354309,747.749207 774.343384,739.559998 773.409912,730.879028 
	C772.767944,724.909729 774.246582,718.661804 775.130432,712.589844 
	C776.824707,700.950867 778.770142,689.348572 780.796631,677.369019 
	C781.985535,684.808228 783.169495,692.591248 783.955261,700.414307 
	C785.580688,716.596436 786.881531,732.811768 788.585266,748.984985 
	C788.947693,752.425476 787.955200,754.104492 784.715576,754.520325 
	C780.435791,755.069641 776.139526,755.491028 771.420410,755.962585 
z"/>
<path fill="#7A7A8C" opacity="1.000000" stroke="none" 
	d="
M658.228394,787.144653 
	C658.629395,787.113159 659.232483,787.279236 659.927124,787.647339 
	C659.489319,787.680359 658.959900,787.511292 658.228394,787.144653 
z"/>
</svg>